<svg width="86" height="98" viewBox="0 0 86 98" fill="none" xmlns="http://www.w3.org/2000/svg">
<path d="M23.9715 0.111008C38.3034 -0.991155 46.1887 6.23276 54.7526 16.4947L62.4983 8.57559L85.7125 8.53051C79.4667 14.9325 72.8135 21.3232 66.7937 27.8932L42.9386 27.875C40.3773 25.3426 37.8551 22.7716 35.3732 20.162C35.355 24.5427 34.7848 52.683 36.0647 54.584C40.6736 55.4843 45.6755 48.8757 48.706 45.6964L58.5434 55.4972C56.1742 57.5287 50.3799 63.8153 48.3807 64.6323C45.5783 61.5594 40.8126 55.0022 36.3315 57.8637C34.2641 61.5218 35.3126 79.6369 35.3432 84.9872C30.9555 89.406 26.4872 93.7444 21.9406 98L21.9626 61.1476C19.9344 59.165 17.8476 57.2425 15.7061 55.3829C17.8133 53.4507 19.9021 51.4993 21.9728 49.5279L21.9524 33.8013C18.2841 36.5081 11.2164 44.0354 7.86375 47.5427C-0.104787 36.9521 -3.05966 25.3824 3.94199 12.9134C8.32971 5.09947 15.6535 2.19937 23.9715 0.111008Z" fill="black"/>
</svg>
